<?xml version="1.0" encoding="UTF-8" standalone="no"?>
<svg
   xmlns:dc="http://purl.org/dc/elements/1.1/"
   xmlns:cc="http://creativecommons.org/ns#"
   xmlns:rdf="http://www.w3.org/1999/02/22-rdf-syntax-ns#"
   xmlns:svg="http://www.w3.org/2000/svg"
   xmlns="http://www.w3.org/2000/svg"
   xmlns:sodipodi="http://sodipodi.sourceforge.net/DTD/sodipodi-0.dtd"
   xmlns:inkscape="http://www.inkscape.org/namespaces/inkscape"
   width="1920"
   height="1080"
   viewBox="0 0 508 285.75002"
   version="1.1"
   id="svg8"
   inkscape:version="1.0.2 (e86c870879, 2021-01-15, custom)"
   sodipodi:docname="HOMEPAGE.svg">
  <defs
     id="defs2">
    <rect
       x="119.20221"
       y="222.36825"
       width="259.78598"
       height="46.504898"
       id="rect901" />
  </defs>
  <sodipodi:namedview
     id="base"
     pagecolor="#ffffff"
     bordercolor="#666666"
     borderopacity="1.0"
     inkscape:pageopacity="0.0"
     inkscape:pageshadow="2"
     inkscape:zoom="0.49497475"
     inkscape:cx="515.81507"
     inkscape:cy="508.1107"
     inkscape:document-units="mm"
     inkscape:current-layer="layer1"
     inkscape:document-rotation="0"
     showgrid="false"
     units="px"
     inkscape:window-width="1920"
     inkscape:window-height="1001"
     inkscape:window-x="-9"
     inkscape:window-y="-9"
     inkscape:window-maximized="1" />
  <metadata
     id="metadata5">
    <rdf:RDF>
      <cc:Work
         rdf:about="">
        <dc:format>image/svg+xml</dc:format>
        <dc:type
           rdf:resource="http://purl.org/dc/dcmitype/StillImage" />
        <dc:title />
      </cc:Work>
    </rdf:RDF>
  </metadata>
  <g
     inkscape:label="Layer 1"
     inkscape:groupmode="layer"
     id="layer1">
    <path
       id="rect13"
       style="fill:#ffffff;stroke:#000000;stroke-width:0.999999"
       d="M -2.0195312 284.86328 L -2.0195312 1084.9043 L 1923.3301 1084.9043 L 1923.3301 2.0195312 L 281.83203 2.0195312 A 283.85287 282.8427 0 0 1 281.82812 3.4335938 A 283.85287 282.8427 0 0 1 281.81836 4.8457031 A 283.85287 282.8427 0 0 1 281.80078 6.2597656 A 283.85287 282.8427 0 0 1 281.77539 7.671875 A 283.85287 282.8427 0 0 1 281.74414 9.0839844 A 283.85287 282.8427 0 0 1 281.70508 10.496094 A 283.85287 282.8427 0 0 1 281.6582 11.908203 A 283.85287 282.8427 0 0 1 281.60547 13.320312 A 283.85287 282.8427 0 0 1 281.54492 14.732422 A 283.85287 282.8427 0 0 1 281.47852 16.144531 A 283.85287 282.8427 0 0 1 281.4043 17.554688 A 283.85287 282.8427 0 0 1 281.32227 18.964844 A 283.85287 282.8427 0 0 1 281.23438 20.375 A 283.85287 282.8427 0 0 1 281.13867 21.785156 A 283.85287 282.8427 0 0 1 281.03516 23.195312 A 283.85287 282.8427 0 0 1 280.92578 24.603516 A 283.85287 282.8427 0 0 1 280.81055 26.011719 A 283.85287 282.8427 0 0 1 280.68555 27.419922 A 283.85287 282.8427 0 0 1 280.55469 28.826172 A 283.85287 282.8427 0 0 1 280.41797 30.232422 A 283.85287 282.8427 0 0 1 280.27148 31.638672 A 283.85287 282.8427 0 0 1 280.11914 33.042969 A 283.85287 282.8427 0 0 1 279.96094 34.447266 A 283.85287 282.8427 0 0 1 279.79492 35.849609 A 283.85287 282.8427 0 0 1 279.62109 37.251953 A 283.85287 282.8427 0 0 1 279.44141 38.654297 A 283.85287 282.8427 0 0 1 279.25391 40.054688 A 283.85287 282.8427 0 0 1 279.06055 41.453125 A 283.85287 282.8427 0 0 1 278.85938 42.853516 A 283.85287 282.8427 0 0 1 278.65039 44.25 A 283.85287 282.8427 0 0 1 278.43555 45.646484 A 283.85287 282.8427 0 0 1 278.21289 47.042969 A 283.85287 282.8427 0 0 1 277.98438 48.4375 A 283.85287 282.8427 0 0 1 277.74805 49.830078 A 283.85287 282.8427 0 0 1 277.50391 51.222656 A 283.85287 282.8427 0 0 1 277.25391 52.613281 A 283.85287 282.8427 0 0 1 276.99805 54.001953 A 283.85287 282.8427 0 0 1 276.73438 55.390625 A 283.85287 282.8427 0 0 1 276.46289 56.777344 A 283.85287 282.8427 0 0 1 276.18359 58.162109 A 283.85287 282.8427 0 0 1 275.90039 59.546875 A 283.85287 282.8427 0 0 1 275.60742 60.929688 A 283.85287 282.8427 0 0 1 275.30859 62.310547 A 283.85287 282.8427 0 0 1 275.00391 63.691406 A 283.85287 282.8427 0 0 1 274.69141 65.068359 A 283.85287 282.8427 0 0 1 274.37109 66.445312 A 283.85287 282.8427 0 0 1 274.04492 67.820312 A 283.85287 282.8427 0 0 1 273.71094 69.193359 A 283.85287 282.8427 0 0 1 273.37109 70.566406 A 283.85287 282.8427 0 0 1 273.02344 71.935547 A 283.85287 282.8427 0 0 1 272.66992 73.304688 A 283.85287 282.8427 0 0 1 272.30859 74.669922 A 283.85287 282.8427 0 0 1 271.94141 76.035156 A 283.85287 282.8427 0 0 1 271.56641 77.398438 A 283.85287 282.8427 0 0 1 271.18555 78.757812 A 283.85287 282.8427 0 0 1 270.79688 80.117188 A 283.85287 282.8427 0 0 1 270.40234 81.474609 A 283.85287 282.8427 0 0 1 270 82.830078 A 283.85287 282.8427 0 0 1 269.5918 84.183594 A 283.85287 282.8427 0 0 1 269.17773 85.533203 A 283.85287 282.8427 0 0 1 268.75586 86.882812 A 283.85287 282.8427 0 0 1 268.32617 88.228516 A 283.85287 282.8427 0 0 1 267.89062 89.574219 A 283.85287 282.8427 0 0 1 267.44922 90.916016 A 283.85287 282.8427 0 0 1 267 92.255859 A 283.85287 282.8427 0 0 1 266.54297 93.59375 A 283.85287 282.8427 0 0 1 266.08203 94.929688 A 283.85287 282.8427 0 0 1 265.61133 96.263672 A 283.85287 282.8427 0 0 1 265.13672 97.595703 A 283.85287 282.8427 0 0 1 264.6543 98.923828 A 283.85287 282.8427 0 0 1 264.16406 100.25 A 283.85287 282.8427 0 0 1 263.66797 101.57422 A 283.85287 282.8427 0 0 1 263.16602 102.89453 A 283.85287 282.8427 0 0 1 262.6582 104.21289 A 283.85287 282.8427 0 0 1 262.14258 105.5293 A 283.85287 282.8427 0 0 1 261.61914 106.84375 A 283.85287 282.8427 0 0 1 261.08984 108.1543 A 283.85287 282.8427 0 0 1 260.55469 109.46289 A 283.85287 282.8427 0 0 1 260.01367 110.76758 A 283.85287 282.8427 0 0 1 259.46484 112.07227 A 283.85287 282.8427 0 0 1 258.91016 113.37109 A 283.85287 282.8427 0 0 1 258.34766 114.66992 A 283.85287 282.8427 0 0 1 257.78125 115.96289 A 283.85287 282.8427 0 0 1 257.20508 117.25586 A 283.85287 282.8427 0 0 1 256.625 118.54492 A 283.85287 282.8427 0 0 1 256.03711 119.83008 A 283.85287 282.8427 0 0 1 255.44336 121.11328 A 283.85287 282.8427 0 0 1 254.84375 122.39453 A 283.85287 282.8427 0 0 1 254.23633 123.66992 A 283.85287 282.8427 0 0 1 253.62305 124.94531 A 283.85287 282.8427 0 0 1 253.00391 126.2168 A 283.85287 282.8427 0 0 1 252.37891 127.48438 A 283.85287 282.8427 0 0 1 251.74609 128.74805 A 283.85287 282.8427 0 0 1 251.10742 130.00977 A 283.85287 282.8427 0 0 1 250.46289 131.26758 A 283.85287 282.8427 0 0 1 249.8125 132.52344 A 283.85287 282.8427 0 0 1 249.1543 133.77539 A 283.85287 282.8427 0 0 1 248.49023 135.02344 A 283.85287 282.8427 0 0 1 247.82031 136.26953 A 283.85287 282.8427 0 0 1 247.14453 137.51172 A 283.85287 282.8427 0 0 1 246.46289 138.75 A 283.85287 282.8427 0 0 1 245.77344 139.98438 A 283.85287 282.8427 0 0 1 245.07812 141.2168 A 283.85287 282.8427 0 0 1 244.37891 142.44531 A 283.85287 282.8427 0 0 1 243.67188 143.66992 A 283.85287 282.8427 0 0 1 242.95703 144.89062 A 283.85287 282.8427 0 0 1 242.23828 146.10938 A 283.85287 282.8427 0 0 1 241.51367 147.32227 A 283.85287 282.8427 0 0 1 240.78125 148.5332 A 283.85287 282.8427 0 0 1 240.04492 149.74023 A 283.85287 282.8427 0 0 1 239.30078 150.94336 A 283.85287 282.8427 0 0 1 238.55078 152.14258 A 283.85287 282.8427 0 0 1 237.79492 153.33789 A 283.85287 282.8427 0 0 1 237.0332 154.5293 A 283.85287 282.8427 0 0 1 236.26562 155.71875 A 283.85287 282.8427 0 0 1 235.49219 156.90234 A 283.85287 282.8427 0 0 1 234.71289 158.08203 A 283.85287 282.8427 0 0 1 233.92773 159.25977 A 283.85287 282.8427 0 0 1 233.13672 160.43164 A 283.85287 282.8427 0 0 1 232.33984 161.59961 A 283.85287 282.8427 0 0 1 231.53711 162.76562 A 283.85287 282.8427 0 0 1 230.72852 163.92578 A 283.85287 282.8427 0 0 1 229.91211 165.08203 A 283.85287 282.8427 0 0 1 229.0918 166.23438 A 283.85287 282.8427 0 0 1 228.26562 167.38281 A 283.85287 282.8427 0 0 1 227.43555 168.52734 A 283.85287 282.8427 0 0 1 226.59766 169.66797 A 283.85287 282.8427 0 0 1 225.75391 170.80273 A 283.85287 282.8427 0 0 1 224.9043 171.93555 A 283.85287 282.8427 0 0 1 224.05078 173.0625 A 283.85287 282.8427 0 0 1 223.18945 174.18555 A 283.85287 282.8427 0 0 1 222.32422 175.30469 A 283.85287 282.8427 0 0 1 221.45312 176.41797 A 283.85287 282.8427 0 0 1 220.57422 177.5293 A 283.85287 282.8427 0 0 1 219.69336 178.63477 A 283.85287 282.8427 0 0 1 218.80469 179.73633 A 283.85287 282.8427 0 0 1 217.91016 180.83398 A 283.85287 282.8427 0 0 1 217.01172 181.92578 A 283.85287 282.8427 0 0 1 216.10742 183.01367 A 283.85287 282.8427 0 0 1 215.19727 184.09766 A 283.85287 282.8427 0 0 1 214.28125 185.17578 A 283.85287 282.8427 0 0 1 213.35938 186.25 A 283.85287 282.8427 0 0 1 212.43359 187.32031 A 283.85287 282.8427 0 0 1 211.50195 188.38672 A 283.85287 282.8427 0 0 1 210.56445 189.44727 A 283.85287 282.8427 0 0 1 209.62305 190.50195 A 283.85287 282.8427 0 0 1 208.67578 191.55273 A 283.85287 282.8427 0 0 1 207.72266 192.59961 A 283.85287 282.8427 0 0 1 206.76367 193.64062 A 283.85287 282.8427 0 0 1 205.80078 194.67773 A 283.85287 282.8427 0 0 1 204.83203 195.71094 A 283.85287 282.8427 0 0 1 203.85938 196.73828 A 283.85287 282.8427 0 0 1 202.88086 197.75977 A 283.85287 282.8427 0 0 1 201.89648 198.77734 A 283.85287 282.8427 0 0 1 200.9082 199.79102 A 283.85287 282.8427 0 0 1 199.91406 200.79688 A 283.85287 282.8427 0 0 1 198.91406 201.80078 A 283.85287 282.8427 0 0 1 197.91016 202.79883 A 283.85287 282.8427 0 0 1 196.90039 203.79102 A 283.85287 282.8427 0 0 1 195.88672 204.7793 A 283.85287 282.8427 0 0 1 194.86914 205.76172 A 283.85287 282.8427 0 0 1 193.84375 206.73828 A 283.85287 282.8427 0 0 1 192.81641 207.71094 A 283.85287 282.8427 0 0 1 191.78125 208.67773 A 283.85287 282.8427 0 0 1 190.74414 209.64062 A 283.85287 282.8427 0 0 1 189.70117 210.59766 A 283.85287 282.8427 0 0 1 188.65234 211.54883 A 283.85287 282.8427 0 0 1 187.59961 212.49609 A 283.85287 282.8427 0 0 1 186.54102 213.4375 A 283.85287 282.8427 0 0 1 185.48047 214.37305 A 283.85287 282.8427 0 0 1 184.41211 215.30273 A 283.85287 282.8427 0 0 1 183.3418 216.22852 A 283.85287 282.8427 0 0 1 182.26562 217.14844 A 283.85287 282.8427 0 0 1 181.18359 218.06445 A 283.85287 282.8427 0 0 1 180.09766 218.97266 A 283.85287 282.8427 0 0 1 179.00781 219.87695 A 283.85287 282.8427 0 0 1 177.91406 220.77539 A 283.85287 282.8427 0 0 1 176.81445 221.66797 A 283.85287 282.8427 0 0 1 175.71094 222.55469 A 283.85287 282.8427 0 0 1 174.60352 223.4375 A 283.85287 282.8427 0 0 1 173.49219 224.31445 A 283.85287 282.8427 0 0 1 172.375 225.18555 A 283.85287 282.8427 0 0 1 171.25391 226.05078 A 283.85287 282.8427 0 0 1 170.12891 226.91016 A 283.85287 282.8427 0 0 1 169 227.76367 A 283.85287 282.8427 0 0 1 167.86523 228.61133 A 283.85287 282.8427 0 0 1 166.72656 229.45508 A 283.85287 282.8427 0 0 1 165.58398 230.29297 A 283.85287 282.8427 0 0 1 164.4375 231.12305 A 283.85287 282.8427 0 0 1 163.28711 231.94922 A 283.85287 282.8427 0 0 1 162.13281 232.76953 A 283.85287 282.8427 0 0 1 160.97461 233.58398 A 283.85287 282.8427 0 0 1 159.81055 234.39258 A 283.85287 282.8427 0 0 1 158.64453 235.19531 A 283.85287 282.8427 0 0 1 157.47266 235.99219 A 283.85287 282.8427 0 0 1 156.29883 236.7832 A 283.85287 282.8427 0 0 1 155.11914 237.56836 A 283.85287 282.8427 0 0 1 153.93555 238.34766 A 283.85287 282.8427 0 0 1 152.75 239.12109 A 283.85287 282.8427 0 0 1 151.55859 239.88867 A 283.85287 282.8427 0 0 1 150.36523 240.64844 A 283.85287 282.8427 0 0 1 149.16602 241.4043 A 283.85287 282.8427 0 0 1 147.96484 242.1543 A 283.85287 282.8427 0 0 1 146.75781 242.89844 A 283.85287 282.8427 0 0 1 145.54883 243.63477 A 283.85287 282.8427 0 0 1 144.33594 244.36719 A 283.85287 282.8427 0 0 1 143.11914 245.0918 A 283.85287 282.8427 0 0 1 141.89844 245.8125 A 283.85287 282.8427 0 0 1 140.67578 246.52539 A 283.85287 282.8427 0 0 1 139.44727 247.23242 A 283.85287 282.8427 0 0 1 138.2168 247.93359 A 283.85287 282.8427 0 0 1 136.98242 248.62891 A 283.85287 282.8427 0 0 1 135.74414 249.31836 A 283.85287 282.8427 0 0 1 134.50195 250 A 283.85287 282.8427 0 0 1 133.25781 250.67578 A 283.85287 282.8427 0 0 1 132.00977 251.34766 A 283.85287 282.8427 0 0 1 130.75781 252.01172 A 283.85287 282.8427 0 0 1 129.50195 252.66797 A 283.85287 282.8427 0 0 1 128.24414 253.32031 A 283.85287 282.8427 0 0 1 126.98242 253.96484 A 283.85287 282.8427 0 0 1 125.71875 254.60547 A 283.85287 282.8427 0 0 1 124.44922 255.23828 A 283.85287 282.8427 0 0 1 123.17969 255.86328 A 283.85287 282.8427 0 0 1 121.9043 256.48438 A 283.85287 282.8427 0 0 1 120.62695 257.09766 A 283.85287 282.8427 0 0 1 119.34766 257.70508 A 283.85287 282.8427 0 0 1 118.06445 258.30664 A 283.85287 282.8427 0 0 1 116.77734 258.90039 A 283.85287 282.8427 0 0 1 115.48828 259.48828 A 283.85287 282.8427 0 0 1 114.19531 260.07031 A 283.85287 282.8427 0 0 1 112.90039 260.64453 A 283.85287 282.8427 0 0 1 111.60352 261.21484 A 283.85287 282.8427 0 0 1 110.30273 261.77734 A 283.85287 282.8427 0 0 1 108.99805 262.33203 A 283.85287 282.8427 0 0 1 107.69141 262.88281 A 283.85287 282.8427 0 0 1 106.38281 263.42383 A 283.85287 282.8427 0 0 1 105.07031 263.96094 A 283.85287 282.8427 0 0 1 103.75586 264.49023 A 283.85287 282.8427 0 0 1 102.43945 265.01367 A 283.85287 282.8427 0 0 1 101.11914 265.53125 A 283.85287 282.8427 0 0 1 99.796875 266.04102 A 283.85287 282.8427 0 0 1 98.472656 266.54492 A 283.85287 282.8427 0 0 1 97.144531 267.04102 A 283.85287 282.8427 0 0 1 95.814453 267.53125 A 283.85287 282.8427 0 0 1 94.482422 268.01562 A 283.85287 282.8427 0 0 1 93.148438 268.49219 A 283.85287 282.8427 0 0 1 91.810547 268.96289 A 283.85287 282.8427 0 0 1 90.470703 269.42578 A 283.85287 282.8427 0 0 1 89.128906 269.88281 A 283.85287 282.8427 0 0 1 87.785156 270.33398 A 283.85287 282.8427 0 0 1 86.439453 270.77734 A 283.85287 282.8427 0 0 1 85.089844 271.21484 A 283.85287 282.8427 0 0 1 83.740234 271.64453 A 283.85287 282.8427 0 0 1 82.386719 272.06836 A 283.85287 282.8427 0 0 1 81.03125 272.48438 A 283.85287 282.8427 0 0 1 79.675781 272.89453 A 283.85287 282.8427 0 0 1 78.316406 273.29883 A 283.85287 282.8427 0 0 1 76.955078 273.69531 A 283.85287 282.8427 0 0 1 75.591797 274.08398 A 283.85287 282.8427 0 0 1 74.226562 274.4668 A 283.85287 282.8427 0 0 1 72.861328 274.84375 A 283.85287 282.8427 0 0 1 71.492188 275.21289 A 283.85287 282.8427 0 0 1 70.121094 275.57617 A 283.85287 282.8427 0 0 1 68.748047 275.93164 A 283.85287 282.8427 0 0 1 67.375 276.2793 A 283.85287 282.8427 0 0 1 65.998047 276.62305 A 283.85287 282.8427 0 0 1 64.621094 276.95703 A 283.85287 282.8427 0 0 1 63.242188 277.28516 A 283.85287 282.8427 0 0 1 61.861328 277.60742 A 283.85287 282.8427 0 0 1 60.478516 277.92188 A 283.85287 282.8427 0 0 1 59.095703 278.22852 A 283.85287 282.8427 0 0 1 57.708984 278.5293 A 283.85287 282.8427 0 0 1 56.322266 278.82422 A 283.85287 282.8427 0 0 1 54.933594 279.11133 A 283.85287 282.8427 0 0 1 53.544922 279.39062 A 283.85287 282.8427 0 0 1 52.152344 279.66406 A 283.85287 282.8427 0 0 1 50.759766 279.92969 A 283.85287 282.8427 0 0 1 49.367188 280.18945 A 283.85287 282.8427 0 0 1 47.970703 280.44141 A 283.85287 282.8427 0 0 1 46.574219 280.6875 A 283.85287 282.8427 0 0 1 45.177734 280.92578 A 283.85287 282.8427 0 0 1 43.777344 281.15625 A 283.85287 282.8427 0 0 1 42.378906 281.38086 A 283.85287 282.8427 0 0 1 40.976562 281.59961 A 283.85287 282.8427 0 0 1 39.574219 281.81055 A 283.85287 282.8427 0 0 1 38.171875 282.01367 A 283.85287 282.8427 0 0 1 36.767578 282.20898 A 283.85287 282.8427 0 0 1 35.363281 282.40039 A 283.85287 282.8427 0 0 1 33.957031 282.58203 A 283.85287 282.8427 0 0 1 32.548828 282.75781 A 283.85287 282.8427 0 0 1 31.140625 282.92578 A 283.85287 282.8427 0 0 1 29.732422 283.08789 A 283.85287 282.8427 0 0 1 28.324219 283.24219 A 283.85287 282.8427 0 0 1 26.912109 283.39062 A 283.85287 282.8427 0 0 1 25.501953 283.53125 A 283.85287 282.8427 0 0 1 24.089844 283.66406 A 283.85287 282.8427 0 0 1 22.677734 283.79102 A 283.85287 282.8427 0 0 1 21.265625 283.91016 A 283.85287 282.8427 0 0 1 19.851562 284.02148 A 283.85287 282.8427 0 0 1 18.4375 284.12695 A 283.85287 282.8427 0 0 1 17.023438 284.22656 A 283.85287 282.8427 0 0 1 15.607422 284.31641 A 283.85287 282.8427 0 0 1 14.193359 284.40039 A 283.85287 282.8427 0 0 1 12.777344 284.47852 A 283.85287 282.8427 0 0 1 11.361328 284.54883 A 283.85287 282.8427 0 0 1 9.9433594 284.61133 A 283.85287 282.8427 0 0 1 8.5273438 284.66797 A 283.85287 282.8427 0 0 1 7.109375 284.7168 A 283.85287 282.8427 0 0 1 5.6933594 284.75781 A 283.85287 282.8427 0 0 1 4.2753906 284.79297 A 283.85287 282.8427 0 0 1 2.8574219 284.82031 A 283.85287 282.8427 0 0 1 1.4394531 284.8418 A 283.85287 282.8427 0 0 1 0.021484375 284.85547 A 283.85287 282.8427 0 0 1 -1.3964844 284.86328 A 283.85287 282.8427 0 0 1 -2.0195312 284.86328 z "
       transform="scale(0.26458333)" />
    <path
       id="path17"
       style="fill:#ffffff;stroke:#000000;stroke-width:0.999999"
       d="M -2.0195312 284.86328 A 283.85287 282.8427 0 0 0 -1.3964844 284.86328 A 283.85287 282.8427 0 0 0 0.021484375 284.85547 A 283.85287 282.8427 0 0 0 1.4394531 284.8418 A 283.85287 282.8427 0 0 0 2.8574219 284.82031 A 283.85287 282.8427 0 0 0 4.2753906 284.79297 A 283.85287 282.8427 0 0 0 5.6933594 284.75781 A 283.85287 282.8427 0 0 0 7.109375 284.7168 A 283.85287 282.8427 0 0 0 8.5273438 284.66797 A 283.85287 282.8427 0 0 0 9.9433594 284.61133 A 283.85287 282.8427 0 0 0 11.361328 284.54883 A 283.85287 282.8427 0 0 0 12.777344 284.47852 A 283.85287 282.8427 0 0 0 14.193359 284.40039 A 283.85287 282.8427 0 0 0 15.607422 284.31641 A 283.85287 282.8427 0 0 0 17.023438 284.22656 A 283.85287 282.8427 0 0 0 18.4375 284.12695 A 283.85287 282.8427 0 0 0 19.851562 284.02148 A 283.85287 282.8427 0 0 0 21.265625 283.91016 A 283.85287 282.8427 0 0 0 22.677734 283.79102 A 283.85287 282.8427 0 0 0 24.089844 283.66406 A 283.85287 282.8427 0 0 0 25.501953 283.53125 A 283.85287 282.8427 0 0 0 26.912109 283.39062 A 283.85287 282.8427 0 0 0 28.324219 283.24219 A 283.85287 282.8427 0 0 0 29.732422 283.08789 A 283.85287 282.8427 0 0 0 31.140625 282.92578 A 283.85287 282.8427 0 0 0 32.548828 282.75781 A 283.85287 282.8427 0 0 0 33.957031 282.58203 A 283.85287 282.8427 0 0 0 35.363281 282.40039 A 283.85287 282.8427 0 0 0 36.767578 282.20898 A 283.85287 282.8427 0 0 0 38.171875 282.01367 A 283.85287 282.8427 0 0 0 39.574219 281.81055 A 283.85287 282.8427 0 0 0 40.976562 281.59961 A 283.85287 282.8427 0 0 0 42.378906 281.38086 A 283.85287 282.8427 0 0 0 43.777344 281.15625 A 283.85287 282.8427 0 0 0 45.177734 280.92578 A 283.85287 282.8427 0 0 0 46.574219 280.6875 A 283.85287 282.8427 0 0 0 47.970703 280.44141 A 283.85287 282.8427 0 0 0 49.367188 280.18945 A 283.85287 282.8427 0 0 0 50.759766 279.92969 A 283.85287 282.8427 0 0 0 52.152344 279.66406 A 283.85287 282.8427 0 0 0 53.544922 279.39062 A 283.85287 282.8427 0 0 0 54.933594 279.11133 A 283.85287 282.8427 0 0 0 56.322266 278.82422 A 283.85287 282.8427 0 0 0 57.708984 278.5293 A 283.85287 282.8427 0 0 0 59.095703 278.22852 A 283.85287 282.8427 0 0 0 60.478516 277.92188 A 283.85287 282.8427 0 0 0 61.861328 277.60742 A 283.85287 282.8427 0 0 0 63.242188 277.28516 A 283.85287 282.8427 0 0 0 64.621094 276.95703 A 283.85287 282.8427 0 0 0 65.998047 276.62305 A 283.85287 282.8427 0 0 0 67.375 276.2793 A 283.85287 282.8427 0 0 0 68.748047 275.93164 A 283.85287 282.8427 0 0 0 70.121094 275.57617 A 283.85287 282.8427 0 0 0 71.492188 275.21289 A 283.85287 282.8427 0 0 0 72.861328 274.84375 A 283.85287 282.8427 0 0 0 74.226562 274.4668 A 283.85287 282.8427 0 0 0 75.591797 274.08398 A 283.85287 282.8427 0 0 0 76.955078 273.69531 A 283.85287 282.8427 0 0 0 78.316406 273.29883 A 283.85287 282.8427 0 0 0 79.675781 272.89453 A 283.85287 282.8427 0 0 0 81.03125 272.48438 A 283.85287 282.8427 0 0 0 82.386719 272.06836 A 283.85287 282.8427 0 0 0 83.740234 271.64453 A 283.85287 282.8427 0 0 0 85.089844 271.21484 A 283.85287 282.8427 0 0 0 86.439453 270.77734 A 283.85287 282.8427 0 0 0 87.785156 270.33398 A 283.85287 282.8427 0 0 0 89.128906 269.88281 A 283.85287 282.8427 0 0 0 90.470703 269.42578 A 283.85287 282.8427 0 0 0 91.810547 268.96289 A 283.85287 282.8427 0 0 0 93.148438 268.49219 A 283.85287 282.8427 0 0 0 94.482422 268.01562 A 283.85287 282.8427 0 0 0 95.814453 267.53125 A 283.85287 282.8427 0 0 0 97.144531 267.04102 A 283.85287 282.8427 0 0 0 98.472656 266.54492 A 283.85287 282.8427 0 0 0 99.796875 266.04102 A 283.85287 282.8427 0 0 0 101.11914 265.53125 A 283.85287 282.8427 0 0 0 102.43945 265.01367 A 283.85287 282.8427 0 0 0 103.75586 264.49023 A 283.85287 282.8427 0 0 0 105.07031 263.96094 A 283.85287 282.8427 0 0 0 106.38281 263.42383 A 283.85287 282.8427 0 0 0 107.69141 262.88281 A 283.85287 282.8427 0 0 0 108.99805 262.33203 A 283.85287 282.8427 0 0 0 110.30273 261.77734 A 283.85287 282.8427 0 0 0 111.60352 261.21484 A 283.85287 282.8427 0 0 0 112.90039 260.64453 A 283.85287 282.8427 0 0 0 114.19531 260.07031 A 283.85287 282.8427 0 0 0 115.48828 259.48828 A 283.85287 282.8427 0 0 0 116.77734 258.90039 A 283.85287 282.8427 0 0 0 118.06445 258.30664 A 283.85287 282.8427 0 0 0 119.34766 257.70508 A 283.85287 282.8427 0 0 0 120.62695 257.09766 A 283.85287 282.8427 0 0 0 121.9043 256.48438 A 283.85287 282.8427 0 0 0 123.17969 255.86328 A 283.85287 282.8427 0 0 0 124.44922 255.23828 A 283.85287 282.8427 0 0 0 125.71875 254.60547 A 283.85287 282.8427 0 0 0 126.98242 253.96484 A 283.85287 282.8427 0 0 0 128.24414 253.32031 A 283.85287 282.8427 0 0 0 129.50195 252.66797 A 283.85287 282.8427 0 0 0 130.75781 252.01172 A 283.85287 282.8427 0 0 0 132.00977 251.34766 A 283.85287 282.8427 0 0 0 133.25781 250.67578 A 283.85287 282.8427 0 0 0 134.50195 250 A 283.85287 282.8427 0 0 0 135.74414 249.31836 A 283.85287 282.8427 0 0 0 136.98242 248.62891 A 283.85287 282.8427 0 0 0 138.2168 247.93359 A 283.85287 282.8427 0 0 0 139.44727 247.23242 A 283.85287 282.8427 0 0 0 140.67578 246.52539 A 283.85287 282.8427 0 0 0 141.89844 245.8125 A 283.85287 282.8427 0 0 0 143.11914 245.0918 A 283.85287 282.8427 0 0 0 144.33594 244.36719 A 283.85287 282.8427 0 0 0 145.54883 243.63477 A 283.85287 282.8427 0 0 0 146.75781 242.89844 A 283.85287 282.8427 0 0 0 147.96484 242.1543 A 283.85287 282.8427 0 0 0 149.16602 241.4043 A 283.85287 282.8427 0 0 0 150.36523 240.64844 A 283.85287 282.8427 0 0 0 151.55859 239.88867 A 283.85287 282.8427 0 0 0 152.75 239.12109 A 283.85287 282.8427 0 0 0 153.93555 238.34766 A 283.85287 282.8427 0 0 0 155.11914 237.56836 A 283.85287 282.8427 0 0 0 156.29883 236.7832 A 283.85287 282.8427 0 0 0 157.47266 235.99219 A 283.85287 282.8427 0 0 0 158.64453 235.19531 A 283.85287 282.8427 0 0 0 159.81055 234.39258 A 283.85287 282.8427 0 0 0 160.97461 233.58398 A 283.85287 282.8427 0 0 0 162.13281 232.76953 A 283.85287 282.8427 0 0 0 163.28711 231.94922 A 283.85287 282.8427 0 0 0 164.4375 231.12305 A 283.85287 282.8427 0 0 0 165.58398 230.29297 A 283.85287 282.8427 0 0 0 166.72656 229.45508 A 283.85287 282.8427 0 0 0 167.86523 228.61133 A 283.85287 282.8427 0 0 0 169 227.76367 A 283.85287 282.8427 0 0 0 170.12891 226.91016 A 283.85287 282.8427 0 0 0 171.25391 226.05078 A 283.85287 282.8427 0 0 0 172.375 225.18555 A 283.85287 282.8427 0 0 0 173.49219 224.31445 A 283.85287 282.8427 0 0 0 174.60352 223.4375 A 283.85287 282.8427 0 0 0 175.71094 222.55469 A 283.85287 282.8427 0 0 0 176.81445 221.66797 A 283.85287 282.8427 0 0 0 177.91406 220.77539 A 283.85287 282.8427 0 0 0 179.00781 219.87695 A 283.85287 282.8427 0 0 0 180.09766 218.97266 A 283.85287 282.8427 0 0 0 181.18359 218.06445 A 283.85287 282.8427 0 0 0 182.26562 217.14844 A 283.85287 282.8427 0 0 0 183.3418 216.22852 A 283.85287 282.8427 0 0 0 184.41211 215.30273 A 283.85287 282.8427 0 0 0 185.48047 214.37305 A 283.85287 282.8427 0 0 0 186.54102 213.4375 A 283.85287 282.8427 0 0 0 187.59961 212.49609 A 283.85287 282.8427 0 0 0 188.65234 211.54883 A 283.85287 282.8427 0 0 0 189.70117 210.59766 A 283.85287 282.8427 0 0 0 190.74414 209.64062 A 283.85287 282.8427 0 0 0 191.78125 208.67773 A 283.85287 282.8427 0 0 0 192.81641 207.71094 A 283.85287 282.8427 0 0 0 193.84375 206.73828 A 283.85287 282.8427 0 0 0 194.86914 205.76172 A 283.85287 282.8427 0 0 0 195.88672 204.7793 A 283.85287 282.8427 0 0 0 196.90039 203.79102 A 283.85287 282.8427 0 0 0 197.91016 202.79883 A 283.85287 282.8427 0 0 0 198.91406 201.80078 A 283.85287 282.8427 0 0 0 199.91406 200.79688 A 283.85287 282.8427 0 0 0 200.9082 199.79102 A 283.85287 282.8427 0 0 0 201.89648 198.77734 A 283.85287 282.8427 0 0 0 202.88086 197.75977 A 283.85287 282.8427 0 0 0 203.85938 196.73828 A 283.85287 282.8427 0 0 0 204.83203 195.71094 A 283.85287 282.8427 0 0 0 205.80078 194.67773 A 283.85287 282.8427 0 0 0 206.76367 193.64062 A 283.85287 282.8427 0 0 0 207.72266 192.59961 A 283.85287 282.8427 0 0 0 208.67578 191.55273 A 283.85287 282.8427 0 0 0 209.62305 190.50195 A 283.85287 282.8427 0 0 0 210.56445 189.44727 A 283.85287 282.8427 0 0 0 211.50195 188.38672 A 283.85287 282.8427 0 0 0 212.43359 187.32031 A 283.85287 282.8427 0 0 0 213.35938 186.25 A 283.85287 282.8427 0 0 0 214.28125 185.17578 A 283.85287 282.8427 0 0 0 215.19727 184.09766 A 283.85287 282.8427 0 0 0 216.10742 183.01367 A 283.85287 282.8427 0 0 0 217.01172 181.92578 A 283.85287 282.8427 0 0 0 217.91016 180.83398 A 283.85287 282.8427 0 0 0 218.80469 179.73633 A 283.85287 282.8427 0 0 0 219.69336 178.63477 A 283.85287 282.8427 0 0 0 220.57422 177.5293 A 283.85287 282.8427 0 0 0 221.45312 176.41797 A 283.85287 282.8427 0 0 0 222.32422 175.30469 A 283.85287 282.8427 0 0 0 223.18945 174.18555 A 283.85287 282.8427 0 0 0 224.05078 173.0625 A 283.85287 282.8427 0 0 0 224.9043 171.93555 A 283.85287 282.8427 0 0 0 225.75391 170.80273 A 283.85287 282.8427 0 0 0 226.59766 169.66797 A 283.85287 282.8427 0 0 0 227.43555 168.52734 A 283.85287 282.8427 0 0 0 228.26562 167.38281 A 283.85287 282.8427 0 0 0 229.0918 166.23438 A 283.85287 282.8427 0 0 0 229.91211 165.08203 A 283.85287 282.8427 0 0 0 230.72852 163.92578 A 283.85287 282.8427 0 0 0 231.53711 162.76562 A 283.85287 282.8427 0 0 0 232.33984 161.59961 A 283.85287 282.8427 0 0 0 233.13672 160.43164 A 283.85287 282.8427 0 0 0 233.92773 159.25977 A 283.85287 282.8427 0 0 0 234.71289 158.08203 A 283.85287 282.8427 0 0 0 235.49219 156.90234 A 283.85287 282.8427 0 0 0 236.26562 155.71875 A 283.85287 282.8427 0 0 0 237.0332 154.5293 A 283.85287 282.8427 0 0 0 237.79492 153.33789 A 283.85287 282.8427 0 0 0 238.55078 152.14258 A 283.85287 282.8427 0 0 0 239.30078 150.94336 A 283.85287 282.8427 0 0 0 240.04492 149.74023 A 283.85287 282.8427 0 0 0 240.78125 148.5332 A 283.85287 282.8427 0 0 0 241.51367 147.32227 A 283.85287 282.8427 0 0 0 242.23828 146.10938 A 283.85287 282.8427 0 0 0 242.95703 144.89062 A 283.85287 282.8427 0 0 0 243.67188 143.66992 A 283.85287 282.8427 0 0 0 244.37891 142.44531 A 283.85287 282.8427 0 0 0 245.07812 141.2168 A 283.85287 282.8427 0 0 0 245.77344 139.98438 A 283.85287 282.8427 0 0 0 246.46289 138.75 A 283.85287 282.8427 0 0 0 247.14453 137.51172 A 283.85287 282.8427 0 0 0 247.82031 136.26953 A 283.85287 282.8427 0 0 0 248.49023 135.02344 A 283.85287 282.8427 0 0 0 249.1543 133.77539 A 283.85287 282.8427 0 0 0 249.8125 132.52344 A 283.85287 282.8427 0 0 0 250.46289 131.26758 A 283.85287 282.8427 0 0 0 251.10742 130.00977 A 283.85287 282.8427 0 0 0 251.74609 128.74805 A 283.85287 282.8427 0 0 0 252.37891 127.48438 A 283.85287 282.8427 0 0 0 253.00391 126.2168 A 283.85287 282.8427 0 0 0 253.62305 124.94531 A 283.85287 282.8427 0 0 0 254.23633 123.66992 A 283.85287 282.8427 0 0 0 254.84375 122.39453 A 283.85287 282.8427 0 0 0 255.44336 121.11328 A 283.85287 282.8427 0 0 0 256.03711 119.83008 A 283.85287 282.8427 0 0 0 256.625 118.54492 A 283.85287 282.8427 0 0 0 257.20508 117.25586 A 283.85287 282.8427 0 0 0 257.78125 115.96289 A 283.85287 282.8427 0 0 0 258.34766 114.66992 A 283.85287 282.8427 0 0 0 258.91016 113.37109 A 283.85287 282.8427 0 0 0 259.46484 112.07227 A 283.85287 282.8427 0 0 0 260.01367 110.76758 A 283.85287 282.8427 0 0 0 260.55469 109.46289 A 283.85287 282.8427 0 0 0 261.08984 108.1543 A 283.85287 282.8427 0 0 0 261.61914 106.84375 A 283.85287 282.8427 0 0 0 262.14258 105.5293 A 283.85287 282.8427 0 0 0 262.6582 104.21289 A 283.85287 282.8427 0 0 0 263.16602 102.89453 A 283.85287 282.8427 0 0 0 263.66797 101.57422 A 283.85287 282.8427 0 0 0 264.16406 100.25 A 283.85287 282.8427 0 0 0 264.6543 98.923828 A 283.85287 282.8427 0 0 0 265.13672 97.595703 A 283.85287 282.8427 0 0 0 265.61133 96.263672 A 283.85287 282.8427 0 0 0 266.08203 94.929688 A 283.85287 282.8427 0 0 0 266.54297 93.59375 A 283.85287 282.8427 0 0 0 267 92.255859 A 283.85287 282.8427 0 0 0 267.44922 90.916016 A 283.85287 282.8427 0 0 0 267.89062 89.574219 A 283.85287 282.8427 0 0 0 268.32617 88.228516 A 283.85287 282.8427 0 0 0 268.75586 86.882812 A 283.85287 282.8427 0 0 0 269.17773 85.533203 A 283.85287 282.8427 0 0 0 269.5918 84.183594 A 283.85287 282.8427 0 0 0 270 82.830078 A 283.85287 282.8427 0 0 0 270.40234 81.474609 A 283.85287 282.8427 0 0 0 270.79688 80.117188 A 283.85287 282.8427 0 0 0 271.18555 78.757812 A 283.85287 282.8427 0 0 0 271.56641 77.398438 A 283.85287 282.8427 0 0 0 271.94141 76.035156 A 283.85287 282.8427 0 0 0 272.30859 74.669922 A 283.85287 282.8427 0 0 0 272.66992 73.304688 A 283.85287 282.8427 0 0 0 273.02344 71.935547 A 283.85287 282.8427 0 0 0 273.37109 70.566406 A 283.85287 282.8427 0 0 0 273.71094 69.193359 A 283.85287 282.8427 0 0 0 274.04492 67.820312 A 283.85287 282.8427 0 0 0 274.37109 66.445312 A 283.85287 282.8427 0 0 0 274.69141 65.068359 A 283.85287 282.8427 0 0 0 275.00391 63.691406 A 283.85287 282.8427 0 0 0 275.30859 62.310547 A 283.85287 282.8427 0 0 0 275.60742 60.929688 A 283.85287 282.8427 0 0 0 275.90039 59.546875 A 283.85287 282.8427 0 0 0 276.18359 58.162109 A 283.85287 282.8427 0 0 0 276.46289 56.777344 A 283.85287 282.8427 0 0 0 276.73438 55.390625 A 283.85287 282.8427 0 0 0 276.99805 54.001953 A 283.85287 282.8427 0 0 0 277.25391 52.613281 A 283.85287 282.8427 0 0 0 277.50391 51.222656 A 283.85287 282.8427 0 0 0 277.74805 49.830078 A 283.85287 282.8427 0 0 0 277.98438 48.4375 A 283.85287 282.8427 0 0 0 278.21289 47.042969 A 283.85287 282.8427 0 0 0 278.43555 45.646484 A 283.85287 282.8427 0 0 0 278.65039 44.25 A 283.85287 282.8427 0 0 0 278.85938 42.853516 A 283.85287 282.8427 0 0 0 279.06055 41.453125 A 283.85287 282.8427 0 0 0 279.25391 40.054688 A 283.85287 282.8427 0 0 0 279.44141 38.654297 A 283.85287 282.8427 0 0 0 279.62109 37.251953 A 283.85287 282.8427 0 0 0 279.79492 35.849609 A 283.85287 282.8427 0 0 0 279.96094 34.447266 A 283.85287 282.8427 0 0 0 280.11914 33.042969 A 283.85287 282.8427 0 0 0 280.27148 31.638672 A 283.85287 282.8427 0 0 0 280.41797 30.232422 A 283.85287 282.8427 0 0 0 280.55469 28.826172 A 283.85287 282.8427 0 0 0 280.68555 27.419922 A 283.85287 282.8427 0 0 0 280.81055 26.011719 A 283.85287 282.8427 0 0 0 280.92578 24.603516 A 283.85287 282.8427 0 0 0 281.03516 23.195312 A 283.85287 282.8427 0 0 0 281.13867 21.785156 A 283.85287 282.8427 0 0 0 281.23438 20.375 A 283.85287 282.8427 0 0 0 281.32227 18.964844 A 283.85287 282.8427 0 0 0 281.4043 17.554688 A 283.85287 282.8427 0 0 0 281.47852 16.144531 A 283.85287 282.8427 0 0 0 281.54492 14.732422 A 283.85287 282.8427 0 0 0 281.60547 13.320312 A 283.85287 282.8427 0 0 0 281.6582 11.908203 A 283.85287 282.8427 0 0 0 281.70508 10.496094 A 283.85287 282.8427 0 0 0 281.74414 9.0839844 A 283.85287 282.8427 0 0 0 281.77539 7.671875 A 283.85287 282.8427 0 0 0 281.80078 6.2597656 A 283.85287 282.8427 0 0 0 281.81836 4.8457031 A 283.85287 282.8427 0 0 0 281.82812 3.4335938 A 283.85287 282.8427 0 0 0 281.83203 2.0195312 L -2.0195312 2.0195312 L -2.0195312 284.86328 z "
       transform="scale(0.26458333)" />
    <path
       style="fill:#4b0083;stroke:none;stroke-width:0.933541;fill-opacity:1"
       d="M -0.09865694,65.802858 V 0.80286007 H 64.901344 129.90134 L 129.24052,8.9725021 C 126.59575,41.669579 113.96313,69.044303 90.99634,91.847168 79.348643,103.41173 70.556502,109.81182 57.143509,116.48981 42.058194,124.00039 25.131279,128.63468 7.1352309,130.1812 l -7.23388784,0.62166 z"
       id="path20" />
    <rect
       style="fill:#ff0000;stroke:#000000;stroke-width:0.264583"
       id="rect850"
       width="47.625"
       height="47.625"
       x="151.27455"
       y="76.439079" />
    <rect
       style="fill:#ffff00;stroke:#000000;stroke-width:0.264583"
       id="rect850-0"
       width="47.625"
       height="47.625"
       x="226.88632"
       y="76.146301" />
    <rect
       style="fill:#0000ff;stroke:#000000;stroke-width:0.264583"
       id="rect850-2"
       width="47.625"
       height="47.625"
       x="301.7218"
       y="76.146309" />
    <rect
       style="fill:#ffa500;stroke:#000000;stroke-width:0.264583;fill-opacity:1"
       id="rect881"
       width="47.625"
       height="47.625"
       x="151.8091"
       y="151.80908" />
    <rect
       style="fill:#008000;stroke:#000000;stroke-width:0.264583"
       id="rect883"
       width="47.625"
       height="47.625"
       x="226.64456"
       y="150.74001" />
    <rect
       style="fill:#ee82ee;stroke:#000000;stroke-width:0.264583;fill-opacity:1"
       id="rect885"
       width="47.625"
       height="47.625"
       x="302.01456"
       y="151.80908" />
    <path
       style="fill:#333333;stroke:#000000;stroke-width:0.53454"
       d="m -0.48350757,208.7987 v -77.76525 l 1.20271285,-0.23306 C 1.3806974,130.6722 4.9287002,130.29077 8.6036563,129.95277 36.384959,127.39756 62.47442,116.73068 82.102775,99.902077 110.31632,75.712853 125.88048,45.726135 128.93497,9.6727185 c 0.31134,-3.6749558 0.67033,-7.2229587 0.79775,-7.8844509 l 0.23167,-1.2027128 H 318.91376 507.86314 V 143.57475 286.56396 H 253.68981 -0.48350757 Z M 199.4341,175.37982 v -24.05425 h -24.32153 -24.32153 v 24.05425 24.05426 h 24.32153 24.32153 z m 150.20548,0 v -24.05425 h -24.32153 -24.32153 v 24.05425 24.05426 h 24.32153 24.32153 z m -75.37003,-1.06907 v -24.05426 h -24.32151 -24.32153 v 24.05426 24.05425 h 24.32153 24.32151 z M 198.89956,100.00982 V 75.955561 H 174.57803 150.2565 v 24.054259 24.05426 h 24.32153 24.32153 z m 75.36999,-0.267271 V 75.42102 h -24.05424 -24.05426 v 24.321529 24.321531 h 24.05426 24.05424 z m 74.83549,0 V 75.42102 h -24.05427 -24.05425 v 24.321529 24.321531 h 24.05425 24.05427 z"
       id="path897" />
    <text
       xml:space="preserve"
       id="text899"
       style="font-size:9.525px;line-height:1.25;font-family:sans-serif;white-space:pre;shape-inside:url(#rect901);" />
    <text
       xml:space="preserve"
       style="font-style:normal;font-variant:normal;font-weight:normal;font-stretch:normal;font-size:16.9333px;line-height:1.25;font-family:Ubuntu;-inkscape-font-specification:'Ubuntu, Normal';fill:#ffffff;stroke-width:0.264583;font-variant-ligatures:normal;font-variant-caps:normal;font-variant-numeric:normal;font-variant-east-asian:normal;"
       x="136.842"
       y="231.98994"
       id="text907"><tspan
         sodipodi:role="line"
         x="136.842"
         y="231.98994"
         style="font-style:normal;font-variant:normal;font-weight:normal;font-stretch:normal;font-size:16.93330002px;font-family:Ubuntu;-inkscape-font-specification:'Ubuntu, Normal';fill:#ffffff;stroke-width:0.264583;font-variant-ligatures:normal;font-variant-caps:normal;font-variant-numeric:normal;font-variant-east-asian:normal;"
         id="tspan913">FROM REAL VIRTUOSO,</tspan><tspan
         sodipodi:role="line"
         x="136.842"
         y="253.15657"
         style="font-style:normal;font-variant:normal;font-weight:normal;font-stretch:normal;font-size:16.93330002px;font-family:Ubuntu;-inkscape-font-specification:'Ubuntu, Normal';fill:#ffffff;stroke-width:0.264583;font-variant-ligatures:normal;font-variant-caps:normal;font-variant-numeric:normal;font-variant-east-asian:normal;"
         id="tspan915">FOR AN AESTHETE,</tspan><tspan
         sodipodi:role="line"
         x="136.842"
         y="274.32318"
         style="font-style:normal;font-variant:normal;font-weight:normal;font-stretch:normal;font-size:16.93330002px;font-family:Ubuntu;-inkscape-font-specification:'Ubuntu, Normal';fill:#ffffff;stroke-width:0.264583;font-variant-ligatures:normal;font-variant-caps:normal;font-variant-numeric:normal;font-variant-east-asian:normal;"
         id="tspan919">BY A NON-PROFIT WEBSITE</tspan></text>
  </g>
</svg>
