<?xml version="1.0" encoding="UTF-8" standalone="no"?>
<svg
   xmlns:dc="http://purl.org/dc/elements/1.1/"
   xmlns:cc="http://creativecommons.org/ns#"
   xmlns:rdf="http://www.w3.org/1999/02/22-rdf-syntax-ns#"
   xmlns:svg="http://www.w3.org/2000/svg"
   xmlns="http://www.w3.org/2000/svg"
   xmlns:sodipodi="http://sodipodi.sourceforge.net/DTD/sodipodi-0.dtd"
   xmlns:inkscape="http://www.inkscape.org/namespaces/inkscape"
   width="8.5in"
   height="14in"
   viewBox="0 0 215.9 355.6"
   version="1.1"
   id="svg8"
   inkscape:version="1.0.2 (e86c870879, 2021-01-15, custom)"
   sodipodi:docname="logohos.svg">
  <defs
     id="defs2">
    <rect
       x="87.3125"
       y="87.501488"
       width="26.647322"
       height="13.418155"
       id="rect898" />
    <rect
       x="79.563988"
       y="85.422623"
       width="45.546131"
       height="12.85119"
       id="rect892" />
    <rect
       x="63.122025"
       y="72.193451"
       width="34.773811"
       height="11.717262"
       id="rect886" />
  </defs>
  <sodipodi:namedview
     id="base"
     pagecolor="#ffffff"
     bordercolor="#666666"
     borderopacity="1.0"
     inkscape:pageopacity="0.0"
     inkscape:pageshadow="2"
     inkscape:zoom="1.4"
     inkscape:cx="419.63766"
     inkscape:cy="429.80561"
     inkscape:document-units="mm"
     inkscape:current-layer="layer1"
     inkscape:document-rotation="0"
     showgrid="false"
     inkscape:snap-bbox="true"
     inkscape:bbox-nodes="true"
     inkscape:window-width="1920"
     inkscape:window-height="1001"
     inkscape:window-x="-9"
     inkscape:window-y="-9"
     inkscape:window-maximized="1"
     units="in" />
  <metadata
     id="metadata5">
    <rdf:RDF>
      <cc:Work
         rdf:about="">
        <dc:format>image/svg+xml</dc:format>
        <dc:type
           rdf:resource="http://purl.org/dc/dcmitype/StillImage" />
        <dc:title />
      </cc:Work>
    </rdf:RDF>
  </metadata>
  <g
     inkscape:label="Layer 1"
     inkscape:groupmode="layer"
     id="layer1">
    <circle
       style="fill:#966f30;fill-opacity:0.421053;stroke:#000000;stroke-width:0.268659"
       id="path840"
       sodipodi:type="arc"
       sodipodi:cx="106.74612"
       sodipodi:cy="95.817024"
       sodipodi:rx="76.194725"
       sodipodi:ry="40.624966"
       sodipodi:start="0"
       sodipodi:end="6.2598677"
       sodipodi:open="true"
       sodipodi:arc-type="arc"
       d="M 182.94084,95.817024 A 76.194725,40.624966 0 0 1 107.19028,136.4413 76.194725,40.624966 0 0 1 30.55657,96.290652 76.194725,40.624966 0 0 1 105.41368,55.198271 76.194725,40.624966 0 0 1 182.92013,94.869833" />
    <circle
       style="fill:#ffff00;fill-opacity:1;stroke:#000000;stroke-width:0.264583"
       id="path842"
       sodipodi:type="arc"
       sodipodi:cx="62.271572"
       sodipodi:cy="101.7701"
       sodipodi:rx="7.8430057"
       sodipodi:ry="7.4650292"
       sodipodi:start="0"
       sodipodi:end="6.2598677"
       sodipodi:open="true"
       sodipodi:arc-type="arc"
       d="m 70.114578,101.7701 a 7.8430057,7.4650292 0 0 1 -7.797286,7.46491 7.8430057,7.4650292 0 0 1 -7.888193,-7.37788 7.8430057,7.4650292 0 0 1 7.70532,-7.550914 7.8430057,7.4650292 0 0 1 7.978027,7.289834" />
    <circle
       style="fill:#2b0000;fill-opacity:1;stroke:#000000;stroke-width:0.264583"
       id="circle844"
       sodipodi:type="arc"
       sodipodi:cx="130.1183"
       sodipodi:cy="122.55878"
       sodipodi:rx="7.8430057"
       sodipodi:ry="7.4650292"
       sodipodi:start="0"
       sodipodi:end="6.2598677"
       sodipodi:open="true"
       sodipodi:arc-type="arc"
       d="m 137.96131,122.55878 a 7.8430057,7.4650292 0 0 1 -7.79729,7.4649 7.8430057,7.4650292 0 0 1 -7.88819,-7.37787 7.8430057,7.4650292 0 0 1 7.70532,-7.55092 7.8430057,7.4650292 0 0 1 7.97802,7.28984" />
    <circle
       style="fill:#008000;fill-opacity:1;stroke:#000000;stroke-width:0.264583"
       id="circle846"
       sodipodi:type="arc"
       sodipodi:cx="101.95908"
       sodipodi:cy="127.09451"
       sodipodi:rx="7.8430057"
       sodipodi:ry="7.4650292"
       sodipodi:start="0"
       sodipodi:end="6.2598677"
       sodipodi:open="true"
       sodipodi:arc-type="arc"
       d="m 109.80209,127.09451 a 7.8430057,7.4650292 0 0 1 -7.79729,7.46491 7.8430057,7.4650292 0 0 1 -7.888189,-7.37788 7.8430057,7.4650292 0 0 1 7.705319,-7.55091 7.8430057,7.4650292 0 0 1 7.97803,7.28983" />
    <circle
       style="fill:#0000ff;fill-opacity:1;stroke:#000000;stroke-width:0.264583"
       id="circle848"
       sodipodi:type="arc"
       sodipodi:cx="78.222176"
       sodipodi:cy="116.96477"
       sodipodi:rx="7.8430057"
       sodipodi:ry="7.4650292"
       sodipodi:start="0"
       sodipodi:end="6.2598677"
       sodipodi:open="true"
       sodipodi:arc-type="arc"
       d="m 86.065181,116.96477 a 7.8430057,7.4650292 0 0 1 -7.797286,7.4649 7.8430057,7.4650292 0 0 1 -7.888192,-7.37787 7.8430057,7.4650292 0 0 1 7.705319,-7.55092 7.8430057,7.4650292 0 0 1 7.978027,7.28984" />
    <circle
       style="fill:#ffffff;fill-opacity:1;stroke:#000000;stroke-width:0.264583"
       id="circle852"
       sodipodi:type="arc"
       sodipodi:cx="153.28824"
       sodipodi:cy="112.05108"
       sodipodi:rx="7.8430057"
       sodipodi:ry="7.4650292"
       sodipodi:start="0"
       sodipodi:end="6.2598677"
       sodipodi:open="true"
       sodipodi:arc-type="arc"
       d="m 161.13124,112.05108 a 7.8430057,7.4650292 0 0 1 -7.79728,7.4649 7.8430057,7.4650292 0 0 1 -7.88819,-7.37787 7.8430057,7.4650292 0 0 1 7.70532,-7.55092 7.8430057,7.4650292 0 0 1 7.97802,7.28984" />
    <circle
       style="fill:#ff00ff;fill-opacity:1;stroke:#000000;stroke-width:0.264583"
       id="circle854"
       sodipodi:type="arc"
       sodipodi:cx="169.23885"
       sodipodi:cy="96.856415"
       sodipodi:rx="7.8430057"
       sodipodi:ry="7.4650292"
       sodipodi:start="0"
       sodipodi:end="6.2598677"
       sodipodi:open="true"
       sodipodi:arc-type="arc"
       d="m 177.08185,96.856415 a 7.8430057,7.4650292 0 0 1 -7.79728,7.464905 7.8430057,7.4650292 0 0 1 -7.8882,-7.377874 7.8430057,7.4650292 0 0 1 7.70532,-7.550919 7.8430057,7.4650292 0 0 1 7.97803,7.289837" />
    <text
       xml:space="preserve"
       id="text884"
       style="font-size:9.525px;line-height:1.25;font-family:'Yu Gothic UI';-inkscape-font-specification:'Yu Gothic UI';white-space:pre;shape-inside:url(#rect886);"
       transform="matrix(1.1666154,0,0,1.4935416,-13.236974,-39.094106)"><tspan
         x="63.121094"
         y="81.075347"><tspan
           style="fill:#171717;fill-opacity:1">HOUSE</tspan><tspan
           style="font-style:normal;font-variant:normal;font-weight:normal;font-stretch:normal;font-family:Ubuntu;-inkscape-font-specification:Ubuntu"> 
</tspan></tspan></text>
    <text
       xml:space="preserve"
       id="text890"
       style="font-size:9.525px;line-height:1.25;font-family:'Yu Gothic UI';-inkscape-font-specification:'Yu Gothic UI';white-space:pre;shape-inside:url(#rect892);"
       transform="matrix(1.114989,0,0,1.5209605,22.240375,-40.654195)"><tspan
         x="79.564453"
         y="94.303863"><tspan
           style="font-style:normal;font-variant:normal;font-weight:normal;font-stretch:normal;font-family:Ubuntu;-inkscape-font-specification:Ubuntu;fill:#171717;fill-opacity:1">COLORS</tspan></tspan></text>
    <text
       xml:space="preserve"
       id="text896"
       style="font-size:9.525px;line-height:1.25;font-family:'Yu Gothic UI';-inkscape-font-specification:'Yu Gothic UI';white-space:pre;shape-inside:url(#rect898);" />
    <text
       xml:space="preserve"
       style="font-size:13.8667px;line-height:1.25;font-family:'Yu Gothic UI';-inkscape-font-specification:'Yu Gothic UI';stroke-width:0.385187"
       x="97.672104"
       y="89.519012"
       id="text904"
       transform="scale(0.97474751,1.0259067)"><tspan
         sodipodi:role="line"
         id="tspan902"
         x="97.672104"
         y="89.519012"
         style="font-style:normal;font-variant:normal;font-weight:normal;font-stretch:normal;font-family:Ubuntu;-inkscape-font-specification:Ubuntu;fill:#171717;fill-opacity:1;stroke-width:0.385187">OF</tspan></text>
    <circle
       style="fill:#ff0000;fill-opacity:1;stroke:#000000;stroke-width:0.264583"
       id="circle850"
       sodipodi:type="arc"
       sodipodi:cx="46.320969"
       sodipodi:cy="86.575439"
       sodipodi:rx="7.8430057"
       sodipodi:ry="7.4650292"
       sodipodi:start="0"
       sodipodi:end="6.2598677"
       sodipodi:open="true"
       sodipodi:arc-type="arc"
       d="m 54.163974,86.575439 a 7.8430057,7.4650292 0 0 1 -7.797286,7.464903 7.8430057,7.4650292 0 0 1 -7.888192,-7.377871 7.8430057,7.4650292 0 0 1 7.70532,-7.550919 7.8430057,7.4650292 0 0 1 7.978026,7.289837" />
  </g>
</svg>
