<?xml version="1.0" encoding="UTF-8" standalone="no"?>
<svg
   xmlns:osb="http://www.openswatchbook.org/uri/2009/osb"
   xmlns:dc="http://purl.org/dc/elements/1.1/"
   xmlns:cc="http://creativecommons.org/ns#"
   xmlns:rdf="http://www.w3.org/1999/02/22-rdf-syntax-ns#"
   xmlns:svg="http://www.w3.org/2000/svg"
   xmlns="http://www.w3.org/2000/svg"
   xmlns:sodipodi="http://sodipodi.sourceforge.net/DTD/sodipodi-0.dtd"
   xmlns:inkscape="http://www.inkscape.org/namespaces/inkscape"
   width="1920px"
   height="1080px"
   viewBox="0 0 1920 1080"
   version="1.1"
   id="SVGRoot"
   sodipodi:docname="WEBPAGE DESIGN.svg"
   inkscape:version="1.0.2 (e86c870879, 2021-01-15, custom)">
  <defs
     id="defs10">
    <rect
       x="220"
       y="620"
       width="220"
       height="40"
       id="rect2876" />
    <rect
       x="0"
       y="0"
       width="1920"
       height="120"
       id="rect2854" />
    <linearGradient
       id="0"
       osb:paint="solid">
      <stop
         style="stop-color:#1c3349;stop-opacity:1;"
         offset="0"
         id="stop2830" />
    </linearGradient>
    <linearGradient
       id="linearGradient2826"
       osb:paint="solid">
      <stop
         style="stop-color:#1c3349;stop-opacity:1;"
         offset="0"
         id="stop2824" />
    </linearGradient>
    <linearGradient
       id="linearGradient2794"
       osb:paint="solid">
      <stop
         style="stop-color:#1c3349;stop-opacity:1;"
         offset="0"
         id="stop2792" />
    </linearGradient>
  </defs>
  <sodipodi:namedview
     id="base"
     pagecolor="#ffffff"
     bordercolor="#666666"
     borderopacity="1.0"
     inkscape:pageopacity="0.0"
     inkscape:pageshadow="2"
     inkscape:zoom="0.7"
     inkscape:cx="803.60977"
     inkscape:cy="557.10494"
     inkscape:document-units="px"
     inkscape:current-layer="layer1"
     inkscape:document-rotation="0"
     showgrid="true"
     inkscape:window-width="1920"
     inkscape:window-height="1001"
     inkscape:window-x="-9"
     inkscape:window-y="-9"
     inkscape:window-maximized="1"
     inkscape:snap-grids="true"
     inkscape:snap-to-guides="true">
    <inkscape:grid
       type="xygrid"
       id="grid23" />
  </sodipodi:namedview>
  <metadata
     id="metadata13">
    <rdf:RDF>
      <cc:Work
         rdf:about="">
        <dc:format>image/svg+xml</dc:format>
        <dc:type
           rdf:resource="http://purl.org/dc/dcmitype/StillImage" />
        <dc:title></dc:title>
      </cc:Work>
    </rdf:RDF>
  </metadata>
  <g
     inkscape:label="Layer 1"
     inkscape:groupmode="layer"
     id="layer1"
     style="display:inline">
    <rect
       style="opacity:1;mix-blend-mode:normal;fill:#1c3349;fill-opacity:1;stroke:#0000aa;stroke-width:0.999995"
       id="rect848"
       width="1920"
       height="1080"
       x="0"
       y="0" />
    <rect
       style="opacity:1;mix-blend-mode:normal;fill:#569abe;fill-opacity:1;stroke:#0000aa"
       id="rect2836"
       width="1920"
       height="120"
       x="0"
       y="0" />
    <text
       xml:space="preserve"
       style="font-style:normal;font-variant:normal;font-weight:normal;font-stretch:normal;font-size:32px;line-height:1.25;font-family:Ubuntu;-inkscape-font-specification:Ubuntu;white-space:pre;inline-size:300;fill:#1c3349;fill-opacity:1;"
       x="20"
       y="60"
       id="text2850"
       transform="matrix(1.07675,0,0,1.4316298,12.539499,-14.676401)"><tspan
         x="20"
         y="60"><tspan
           style="font-size:32px;fill:#1c3349;fill-opacity:1">HOUSE OF COLORS</tspan></tspan></text>
    <text
       xml:space="preserve"
       id="text2852"
       style="line-height:1.25;font-family:sans-serif;font-size:24px;white-space:pre;shape-inside:url(#rect2854);fill:#0245a3;fill-opacity:1;" />
    <rect
       style="opacity:1;fill:#569abe;fill-opacity:1;stroke:#0000aa;stroke-width:1.1698"
       id="rect2858"
       width="1040"
       height="80"
       x="860"
       y="20" />
    <text
       xml:space="preserve"
       style="font-size:36px;line-height:1.25;font-family:sans-serif;fill:#1c3349;fill-opacity:1;"
       x="875.71429"
       y="75.714287"
       id="text2866"><tspan
         sodipodi:role="line"
         id="tspan2864"
         x="875.71429"
         y="75.714287">HOME   CATEGORIES   ABOUT US   CONTACT US  CART</tspan></text>
    <rect
       style="opacity:1;fill:#569abe;fill-opacity:1;stroke:#0000aa"
       id="rect2868"
       width="340"
       height="460"
       x="160"
       y="260" />
    <rect
       style="opacity:1;fill:#ffffff;fill-opacity:1;stroke:#0000aa"
       id="rect2870"
       width="260"
       height="300"
       x="200"
       y="300" />
    <rect
       style="opacity:1;fill:#ffffff;fill-opacity:1;stroke:#0000aa"
       id="rect2872"
       width="100"
       height="40"
       x="270"
       y="660" />
    <text
       xml:space="preserve"
       id="text2874"
       style="font-size:36px;line-height:1.25;font-family:sans-serif;white-space:pre;shape-inside:url(#rect2876);" />
    <text
       xml:space="preserve"
       style="font-size:36px;line-height:1.25;font-family:sans-serif;fill:#1c3349;fill-opacity:1;"
       x="264.28571"
       y="637.14288"
       id="text2882"><tspan
         sodipodi:role="line"
         id="tspan2880"
         x="264.28571"
         y="637.14288">XYZYZ</tspan></text>
    <rect
       style="display:inline;fill:#569abe;fill-opacity:1;stroke:#0000aa;stroke-width:1.02247"
       id="rect2868-5"
       width="340"
       height="460"
       x="720"
       y="260" />
    <rect
       style="display:inline;fill:#ffffff;fill-opacity:1;stroke:#0000aa"
       id="rect2870-1"
       width="260"
       height="300"
       x="760"
       y="300" />
    <rect
       style="display:inline;fill:#ffffff;fill-opacity:1;stroke:#0000aa"
       id="rect2872-8"
       width="100"
       height="40"
       x="840"
       y="660" />
    <text
       xml:space="preserve"
       style="font-size:36px;line-height:1.25;font-family:sans-serif;display:inline;fill:#1c3349;fill-opacity:1;"
       x="824.28571"
       y="644.28577"
       id="text2882-9"><tspan
         sodipodi:role="line"
         id="tspan2880-6"
         x="824.28571"
         y="644.28577">XYZYZ</tspan></text>
    <rect
       style="display:inline;fill:#569abe;fill-opacity:1;stroke:#0000aa"
       id="rect2868-1"
       width="340"
       height="460"
       x="1240"
       y="260" />
    <rect
       style="display:inline;fill:#ffffff;fill-opacity:1;stroke:#0000aa"
       id="rect2870-1-8"
       width="260"
       height="300"
       x="1280"
       y="300" />
    <text
       xml:space="preserve"
       style="font-size:36px;line-height:1.25;font-family:sans-serif;display:inline;fill:#1c3349;fill-opacity:1;"
       x="1344.2856"
       y="644.28577"
       id="text2882-9-0"><tspan
         sodipodi:role="line"
         id="tspan2880-6-2"
         x="1344.2856"
         y="644.28577">XYZYZ</tspan></text>
    <rect
       style="display:inline;fill:#ffffff;fill-opacity:1;stroke:#0000aa"
       id="rect2872-8-3"
       width="100"
       height="40"
       x="1360"
       y="660" />
    <path
       style="fill:none;stroke:#000000;stroke-width:1px;stroke-linecap:butt;stroke-linejoin:miter;stroke-opacity:1"
       d="m 260,380 c -4.0723,31.46593 41.42857,-9.9387 41.42857,-4.28571 0,2.0203 -2.79644,2.92054 -4.28571,4.28571 -4.22691,3.87467 -8.34832,7.88593 -12.85715,11.42857 -9.15974,7.19694 -21.27437,10.71837 -30,18.57143 -9.58914,8.63023 -7.08611,7.14286 0,7.14286 18.09524,0 36.19048,0 54.28572,0 10,0 20.05494,-1.04685 30,0 1.33947,0.14099 -1.65247,2.2548 -2.85714,2.85714 -2.69374,1.34687 -5.70597,1.93008 -8.57143,2.85714 -29.32102,9.48621 -50.38392,10.74641 -70,34.28572 -1.09915,1.31898 -3.8873,2.91217 -2.85715,4.28571 8.19556,10.9274 47.85612,18.1902 60,21.42857 5.69127,1.51768 11.52083,2.52883 17.14286,4.28572 2.03265,0.6352 3.94236,1.67586 5.71429,2.85714 0.39621,0.26414 -0.96163,0.0934 -1.42857,0 -60.62112,-12.12422 -54.35159,-58.82664 -57.14286,-110 -1.3265,-24.31914 0.21257,-30.28223 24.28571,-31.42857 5.23217,-0.24915 10.47619,0 15.71429,0 2.38095,0 7.89578,-2.25877 7.14286,0 -5.95325,17.85972 -31.71013,30.11054 -44.28572,41.42857 -2.55237,2.29713 -4.05546,5.56482 -5.71428,8.57143 -5.96768,10.8164 -12.4195,21.44235 -17.14286,32.85714 -1.09243,2.64005 -1.38755,6.07384 0,8.57143 5.83304,10.49948 36.04904,3.29798 45.71428,5.71429 8.9383,2.23457 47.67606,25.78672 44.28572,27.14285 -34.73844,13.89538 -71.99136,11.42857 -108.57143,11.42857 -0.47619,0 1.01276,0.23208 1.42857,0 20.11413,-11.22649 39.54774,-23.68772 60,-34.28571 31.95696,-16.55952 65.84511,-29.36883 97.14286,-47.14286 7.61271,-4.32326 12.61431,-12.15607 18.57143,-18.57143 4.17115,-4.49201 -12.64805,1.24039 -12.85715,1.42858 -37.02753,33.32478 37.28751,-22.98924 -30,20 -12.10331,7.73267 -44.80101,36.14847 -58.57142,42.85714 -8.41065,4.09749 -18.19255,4.41885 -27.14286,7.14286 -2.03732,0.62005 -7.22013,1.35129 -5.71429,2.85714 2.02031,2.0203 5.71985,-0.17822 8.57143,0 4.77634,0.29852 9.50421,1.6278 14.28572,1.42857 6.72851,-0.28035 13.44466,-1.31471 20,-2.85714 9.67883,-2.27737 19.678,-4.12472 28.57142,-8.57143 21.41869,-10.70935 47.63743,-32.91175 42.85715,-60 -0.51592,-2.92354 -8.07823,-18.07823 -10,-20 -4.79606,-4.79606 -19.35252,-7.60763 -24.28572,-2.85714 -20.36686,19.61253 -37.87466,62.17981 -30,91.42857 4.06202,15.08749 57.80589,17.36387 70,21.42857 C 403.8673,478.90815 400.95238,479.52381 400,480"
       id="path3060" />
    <path
       style="fill:none;stroke:#000000;stroke-width:1px;stroke-linecap:butt;stroke-linejoin:miter;stroke-opacity:1"
       d="m 860,400 c -0.95238,-4.28571 -4.16665,-8.66673 -2.85714,-12.85714 1.40608,-4.49946 7.05516,-6.31895 10,-10 2.80636,-3.50796 5.2431,-7.35766 7.14285,-11.42857 6.78006,-14.52869 -5.26271,-26.50424 -10,-21.42858 -6.10075,6.53653 -39.30283,51.16662 -42.85714,58.57143 -1.86597,3.88745 -2.8391,8.78228 -1.42857,12.85715 13.07458,37.771 40.62235,41.42481 75.71429,42.85714 11.89485,0.4855 23.83476,0.77475 35.71428,0 13.56302,-0.88455 30.94046,2.0286 37.14286,-12.85714 3.73805,-8.97133 -8.0124,-23.61282 -11.42857,-27.14286 -16.26413,-16.80627 -48.72865,-39.86734 -71.42857,-45.71429 -18.43565,-4.74857 -66.6792,-11.82331 -85.71429,8.57143 -3.20003,3.4286 -3.97249,8.50265 -5.71429,12.85714 -1.11851,2.79629 -3.1298,5.57211 -2.85714,8.57143 2.21211,24.33322 124.81622,18.28533 114.28572,-18.57143 -4.87967,-17.07883 -38.88405,-45.24997 -58.57143,-40 -4.11537,1.09744 -9.47513,1.9295 -11.42857,5.71429 -9.91433,19.20902 -20.38391,57.78946 -5.71429,78.57143 3.10687,4.4014 7.71795,7.52265 11.42857,11.42857 5.33906,5.62006 9.92051,11.99283 15.71429,17.14286 4.15058,3.6894 10.35894,4.64466 14.28571,8.57143 0.75293,0.75292 -2.04869,0.73561 -2.85714,1.42857 -2.8238,2.4204 -4.56722,5.88847 -7.14286,8.57143 -9.55709,9.9553 -26.3749,20.55326 -31.42857,35.71428 -0.54294,1.62882 2.96673,-1.75799 4.28571,-2.85714 4.68478,-3.90398 9.63043,-7.48948 14.28572,-11.42857 7.72848,-6.53949 15.07971,-13.51881 22.85714,-20 14.32219,-11.93516 41.65112,-27.69922 50,-48.57143 3.63966,-9.09914 1.35322,-30.38264 -5.71428,-37.14286 -4.71165,-4.50679 -31.40032,-18.59968 -41.42858,-8.57143 -0.30682,0.30683 0,6.67649 0,7.14286 0,11.23441 3.94548,19.38715 5.71429,30"
       id="path3062" />
    <path
       style="fill:none;stroke:#000000;stroke-width:1px;stroke-linecap:butt;stroke-linejoin:miter;stroke-opacity:1"
       d="m 1340,420 c 19.7796,-11.86778 13.2875,-6.88827 34.2857,-25.71429 7.2749,-6.52232 14.9136,-12.71853 21.4286,-20 1.7099,-1.91107 1.7103,-4.84922 2.8571,-7.14285 0.213,-0.42592 0.3962,1.16443 0,1.42857 -1.2529,0.83529 -3.1477,0.44235 -4.2857,1.42857 -6.1069,5.29264 -11.52,11.3386 -17.1428,17.14286 -9.1402,9.43502 -19.027,18.24211 -27.1429,28.57143 -2.5137,3.19919 -7.1626,8.55165 -4.2857,11.42857 5.6444,5.64441 14.9549,6.01397 22.8571,7.14285 22.2361,3.17659 44.8003,3.40298 67.1429,5.71429 10.8243,1.11975 14.5596,-0.11104 20,7.14286 3.4379,4.58394 -36.0047,63.05406 -40,68.57143 -10.4484,14.42868 -33.2978,35.53186 -22.8572,28.57142 16.5891,-11.05936 30.7745,-25.36883 45.7143,-38.57142 30.8786,-27.28802 78.9468,-68.52902 34.2857,-110 -23.1461,-21.49281 -51.3372,-16.64001 -80,-17.14286 -16.1949,-0.28412 -32.3892,-0.725 -48.5714,-1.42857 -6.728,-0.29252 -15.2381,1.90476 -20,-2.85715 -0.3367,-0.33671 0.9524,0 1.4286,0 7.3333,0 3.3363,-0.63887 12.8571,4.28572 10.9726,5.67546 22.12,11.03378 32.8572,17.14286 16.8935,9.61182 33.5027,19.72299 50,30 20.3526,12.67871 41.8444,22.79617 54.2857,44.28571 2.6779,4.62548 -12.0811,17.57486 -14.2857,20 -2.265,2.49151 -4.1782,5.54648 -7.1429,7.14286 -12.6342,6.80302 -61.664,3.37969 -74.2857,-1.42857 -4.5815,-1.74534 -12.4811,-2.25462 -12.8571,-7.14286 -1.6834,-21.88326 39.7237,-75.29838 44.2857,-81.42857 3.022,-4.06089 7.8492,-6.42065 11.4285,-10 1.6836,-1.68359 5.7143,-7.61905 4.2858,-5.71429 -2.2315,2.97533 -4.7619,5.71429 -7.1429,8.57143"
       id="path3064" />
  </g>
</svg>
